HIERARCHY
ROOT Hips
{
	OFFSET 0.00000 0.00000 0.00000
	CHANNELS 6 Xposition Yposition Zposition Zrotation Yrotation Xrotation 
	JOINT LHipJoint
	{
		OFFSET 0 0 0
		CHANNELS 3 Zrotation Yrotation Xrotation
		JOINT LeftHip
		{
			OFFSET 1.56857 -1.73443 1.15205
			CHANNELS 3 Zrotation Yrotation Xrotation
			JOINT LeftKnee
			{
				OFFSET 2.39362 -6.57643 0.00000
				CHANNELS 3 Zrotation Yrotation Xrotation
				JOINT LeftAnkle
				{
					OFFSET 2.50952 -6.89485 0.00000
					CHANNELS 3 Zrotation Yrotation Xrotation
					JOINT LeftToe
					{
						OFFSET 0.17171 -0.47178 1.88682
						CHANNELS 3 Zrotation Yrotation Xrotation
						End Site
						{
							OFFSET 0.00000 -0.00000 0.98146
						}
					}
				}
			}
		}
	}
	JOINT RHipJoint
	{
		OFFSET 0 0 0
		CHANNELS 3 Zrotation Yrotation Xrotation
		JOINT RightHip
		{
			OFFSET -1.28153 -1.73443 1.15205
			CHANNELS 3 Zrotation Yrotation Xrotation
			JOINT RightKnee
			{
				OFFSET -2.26861 -6.23296 0.00000
				CHANNELS 3 Zrotation Yrotation Xrotation
				JOINT RightAnkle
				{
					OFFSET -2.54143 -6.98254 0.00000
					CHANNELS 3 Zrotation Yrotation Xrotation
					JOINT RightToe
					{
						OFFSET -0.23309 -0.64041 1.93119
						CHANNELS 3 Zrotation Yrotation Xrotation
						End Site
						{
							OFFSET -0.00000 -0.00000 1.02013
						}
					}
				}
			}
		}
	}
	JOINT lowerback
	{
		OFFSET 0 0 0
		CHANNELS 3 Zrotation Yrotation Xrotation
		JOINT Chest
		{
			OFFSET -0.07096 2.10460 -0.27878
			CHANNELS 3 Zrotation Yrotation Xrotation
			JOINT Chest2
			{
				OFFSET -0.00826 2.13662 -0.08279
				CHANNELS 3 Zrotation Yrotation Xrotation
				JOINT lowerneck
				{
					OFFSET 0 0 0
					CHANNELS 3 Zrotation Yrotation Xrotation
					JOINT Neck
					{
						OFFSET 0.03239 1.77799 0.24435
						CHANNELS 3 Zrotation Yrotation Xrotation
						JOINT Head
						{
							OFFSET 0.01026 1.74194 -0.49664
							CHANNELS 3 Zrotation Yrotation Xrotation
							End Site
							{
								OFFSET 0.00170 1.83057 -0.19653
							}
						}
					}
				}
				JOINT LeftCollar
				{
					OFFSET 0 0 0
					CHANNELS 3 Zrotation Yrotation Xrotation
					JOINT LeftShoulder
					{
						OFFSET 3.19178 1.35907 -0.31412
CHANNELS 3 Zrotation Xrotation Yrotation
						JOINT LeftElbow
						{
OFFSET 0 -4.852470 -0.000000
CHANNELS 3 Zrotation Xrotation Yrotation
							JOINT LeftWrist
							{
OFFSET 0 -3.555840 0.000000
CHANNELS 3 Zrotation Xrotation Yrotation
								JOINT lhand
								{
									OFFSET 0 0 0
CHANNELS 3 Zrotation Xrotation Yrotation
									JOINT LFingers
									{
OFFSET 0 -0.693200 0.000000
CHANNELS 3 Zrotation Xrotation Yrotation
										End Site
										{
OFFSET 0 -0.558880 0.000000
										}
									}
								}
								JOINT LThumb
								{
OFFSET 0 0.000000 0.000000
CHANNELS 3 Zrotation Xrotation Yrotation
									End Site
									{
OFFSET 0 -0.567410 0.567410
									}
								}
							}
						}
					}
				}
				JOINT RightCollar
				{
					OFFSET 0 0 0
					CHANNELS 3 Zrotation Yrotation Xrotation
					JOINT RightShoulder
					{
						OFFSET -3.28999 1.24191 -0.26899
CHANNELS 3 Zrotation Xrotation Yrotation
						JOINT RightElbow
						{
OFFSET 0 -4.644620 0.000000
CHANNELS 3 Zrotation Xrotation Yrotation
							JOINT RightWrist
							{
OFFSET 0 -3.407030 0.000000
CHANNELS 3 Zrotation Xrotation Yrotation
								JOINT rhand
								{
									OFFSET 0 0 0
CHANNELS 3 Zrotation Xrotation Yrotation
									JOINT RFingers
									{
OFFSET 0 -0.619580 0.000000
CHANNELS 3 Zrotation Xrotation Yrotation
										End Site
										{
OFFSET 0 -0.499520 0.000000
										}
									}
								}
								JOINT RThumb
								{
OFFSET 0 0.000000 0.000000
CHANNELS 3 Zrotation Xrotation Yrotation
									End Site
									{
OFFSET 0 -0.507150 0.507150
									}
								}
							}
						}
					}
				}
			}
		}
	}
}
MOTION
Frames: 10
Frame Time: 0.008333333333333333
8.528129 16.739450 -0.135777 461.387087 73.992059 461.215484 0.000000 0.000000 0.000000 -36.454388 12.390733 17.011839 0.021804 0.953291 2.620303 0.111374 -13.645614 -10.883426 0.326048 3.669984 10.150124 0.000000 0.000000 0.000000 -0.565586 -0.823223 -26.569718 -0.152401 -2.515262 6.931986 -0.319575 3.773545 -10.052363 -0.103424 -2.073020 5.707601 -19.636853 -2.047270 4.721833 -2.473044 -3.685311 -0.084251 8.482032 -1.586756 -1.693724 6.179680 4.778745 -24.525904 -2.600453 4.887785 13.249537 -1.183484 2.360054 8.302757 0.000000 0.000000 0.000000 12.053113 -6.884412 -54.519340 30.976004 -41.715346 12.053809 19.558000 -10.989422 23.370972 0.000000 0.000000 0.000000 -7.125000 0.000000 0.000000 -5.935201 5.455592 -5.373578 0.000000 0.000000 0.000000 -9.158337 22.264202 30.503057 -19.880386 -30.497932 -5.470563 -10.757223 3.408223 29.938091 0.000000 0.000000 0.000000 7.125000 0.000000 0.000000 23.054159 58.842232 -8.071551
8.780629 16.706597 -0.139606 462.687753 73.619797 462.855997 0.000000 0.000000 0.000000 -36.827791 11.816839 17.577424 0.031901 1.152487 3.168478 0.153713 -13.772164 -11.427942 0.247217 3.196552 8.826751 0.000000 0.000000 0.000000 -0.794781 -1.812157 -27.196536 -0.147122 -2.471795 6.811378 -0.320568 5.089876 -10.154331 -0.049942 -1.430712 3.935029 -19.822856 -2.165256 4.687308 -2.458357 -3.848609 -0.147450 8.601335 -1.661179 -1.683871 6.070834 4.718632 -24.881628 -2.605804 4.821137 13.315120 -1.172212 2.319519 8.377009 0.000000 0.000000 0.000000 11.808807 -6.596958 -55.184348 30.767422 -41.542065 11.915329 19.231506 -11.143114 23.752220 0.000000 0.000000 0.000000 -7.125000 0.000000 0.000000 -6.170106 5.114260 -5.628841 0.000000 0.000000 0.000000 -9.127748 22.414634 30.490686 -19.661051 -30.231844 -5.359617 -10.967085 3.415565 29.523740 0.000000 0.000000 0.000000 7.125000 0.000000 0.000000 22.523787 58.510019 -7.691555
9.037452 16.667383 -0.135568 463.486856 73.652253 463.947579 0.000000 0.000000 0.000000 -36.743436 11.292584 18.263255 0.039353 1.279699 3.518818 0.201984 -13.531552 -11.811157 0.154738 2.530042 6.973215 0.000000 0.000000 0.000000 -0.927411 -1.169998 -27.214641 -0.166883 -2.631182 7.253504 -0.345250 5.105022 -10.518158 -0.020917 -0.931632 2.560726 -19.667870 -2.170952 4.650473 -2.350207 -3.854752 -0.229331 8.636996 -1.656791 -1.753974 5.879213 4.619454 -24.948345 -2.591916 4.744580 13.250631 -1.147955 2.274208 8.357120 0.000000 0.000000 0.000000 11.463771 -6.183596 -55.821834 30.400556 -41.234172 11.672740 19.468205 -11.105032 23.924794 0.000000 0.000000 0.000000 -7.125000 0.000000 0.000000 -6.038563 4.899108 -5.532158 0.000000 0.000000 0.000000 -9.082941 22.643482 30.131752 -19.682041 -30.257297 -5.370248 -9.858532 3.687858 30.906339 0.000000 0.000000 0.000000 7.125000 0.000000 0.000000 24.752753 59.514910 -9.118837
9.313181 16.633459 -0.128596 464.196267 73.956174 464.842947 0.000000 0.000000 0.000000 -36.350818 10.804440 19.154997 0.045995 1.383981 3.806077 0.242357 -13.285610 -12.106799 0.130215 2.325879 6.407158 0.000000 0.000000 0.000000 -0.906622 0.209837 -26.716571 -0.210645 -2.952062 8.145463 -0.363985 4.168351 -10.732566 -0.109197 -2.101707 5.787767 -19.308487 -2.207525 4.433994 -2.163451 -3.841684 -0.233127 8.634510 -1.669271 -1.648392 5.822853 4.488484 -25.016314 -2.718015 4.607685 13.294140 -1.201086 2.192285 8.379266 0.000000 0.000000 0.000000 11.078983 -5.568197 -56.272888 29.980242 -40.876150 11.396809 18.708228 -10.575640 23.571944 0.000000 0.000000 0.000000 -7.125000 0.000000 0.000000 -6.479339 5.380713 -5.881726 0.000000 0.000000 0.000000 -9.034133 22.718249 29.841097 -19.403215 -29.916243 -5.230636 -9.204958 4.187457 31.103884 0.000000 0.000000 0.000000 7.125000 0.000000 0.000000 25.582746 59.543506 -9.462601
9.590318 16.608194 -0.127336 463.870139 73.701801 464.729471 0.000000 0.000000 0.000000 -36.725998 10.484474 19.830072 0.058441 1.559722 4.290490 0.271928 -13.090391 -12.317453 0.075024 1.736886 4.779697 0.000000 0.000000 0.000000 -1.444953 1.223386 -26.566114 -0.308178 -3.563865 9.853209 -0.372665 3.464365 -10.863593 -0.181630 -2.744968 7.569574 -19.480372 -2.201394 4.276658 -2.174122 -3.811246 -0.296398 8.708414 -1.649366 -1.627727 5.728642 4.377531 -25.049301 -2.717742 4.487692 13.271946 -1.203465 2.130476 8.369624 0.000000 0.000000 0.000000 10.746819 -4.747129 -56.618143 29.492185 -40.453855 11.078777 18.730435 -10.651599 23.432326 0.000000 0.000000 0.000000 -7.125000 0.000000 0.000000 -6.454389 5.520647 -5.841481 0.000000 0.000000 0.000000 -9.086787 22.875164 30.090009 -19.286725 -29.773433 -5.172431 -9.221840 3.834239 31.298348 0.000000 0.000000 0.000000 7.125000 0.000000 0.000000 25.730438 59.720591 -9.631855
9.884797 16.586438 -0.120462 463.637402 73.602937 464.650551 0.000000 0.000000 0.000000 -36.902882 10.154661 20.659914 0.071664 1.726968 4.751741 0.297827 -12.530236 -12.314774 0.006849 0.256489 0.704768 0.000000 0.000000 0.000000 -1.600492 2.093258 -26.280196 -0.426093 -4.187962 11.606239 -0.389406 2.703989 -11.167452 -0.163391 -2.602785 7.174813 -19.465887 -2.158034 4.085991 -2.193678 -3.717569 -0.368473 8.669582 -1.598410 -1.628128 5.746653 4.307020 -25.317737 -2.772953 4.384803 13.602420 -1.235562 2.075017 8.524112 0.000000 0.000000 0.000000 10.476140 -3.684859 -56.997810 28.976346 -39.999314 10.745596 18.652438 -10.148670 23.390121 0.000000 0.000000 0.000000 -7.125000 0.000000 0.000000 -6.499472 5.575858 -5.875973 0.000000 0.000000 0.000000 -9.017922 22.848371 30.053642 -19.004225 -29.423621 -5.033037 -8.865168 4.380737 31.174374 0.000000 0.000000 0.000000 7.125000 0.000000 0.000000 25.988908 59.528547 -9.616066
10.192842 16.568622 -0.109076 463.982803 73.520039 465.107447 0.000000 0.000000 0.000000 -37.017765 9.690960 21.619822 0.084341 1.872567 5.153697 0.338264 -11.705602 -12.370336 0.075123 -1.748789 -4.812320 0.000000 0.000000 0.000000 -1.535709 2.147604 -25.769957 -0.483144 -4.457140 12.366320 -0.300908 1.203252 -10.004185 -0.107476 -2.111915 5.815160 -19.440248 -2.226166 3.806818 -2.141530 -3.740325 -0.360857 8.696928 -1.627813 -1.452079 5.386363 4.300177 -25.494835 -2.504172 4.437983 13.713532 -1.075636 2.109058 8.577926 0.000000 0.000000 0.000000 10.064583 -2.724956 -57.194384 28.286175 -39.378110 10.304807 18.421661 -9.616622 23.116104 0.000000 0.000000 0.000000 -7.125000 0.000000 0.000000 -6.621749 5.891821 -5.947863 0.000000 0.000000 0.000000 -9.073318 22.590521 30.109079 -18.657702 -28.991102 -4.863793 -8.600962 4.976982 31.383283 0.000000 0.000000 0.000000 7.125000 0.000000 0.000000 26.437244 59.652929 -9.876694
10.509855 16.564838 -0.089630 466.095267 73.957286 467.369524 0.000000 0.000000 0.000000 -36.444788 8.770386 22.613085 0.103620 2.075385 5.713946 0.377962 -10.931680 -12.482433 0.180580 -2.736913 -7.547198 0.000000 0.000000 0.000000 -0.799486 1.650669 -25.055022 -0.443080 -4.270640 11.839499 -0.145163 -0.848975 -7.551779 -0.290052 -3.454206 9.546755 -18.780905 -2.382847 3.690303 -1.943057 -3.930027 -0.567999 8.557732 -1.709836 -1.585629 5.598013 4.280795 -25.272798 -2.866001 4.425385 13.817268 -1.237935 2.075804 8.591825 0.000000 0.000000 0.000000 9.565384 -1.227779 -57.105480 27.537239 -38.686611 9.833157 18.041322 -9.056011 22.996062 0.000000 0.000000 0.000000 -7.125000 0.000000 0.000000 -6.850046 6.071041 -6.132121 0.000000 0.000000 0.000000 -8.971315 22.755825 29.753597 -18.624790 -28.949715 -4.847836 -7.644019 5.233537 31.931201 0.000000 0.000000 0.000000 7.125000 0.000000 0.000000 27.891781 59.913448 -10.646975
10.813116 16.572557 -0.084506 466.383805 74.937403 467.825301 0.000000 0.000000 0.000000 -35.814720 7.951930 23.423697 0.130299 2.325866 6.407283 0.361579 -9.637532 -11.817076 0.016618 -0.676424 -1.859776 0.000000 0.000000 0.000000 0.469908 1.161542 -25.033903 -0.470873 -4.401152 12.208160 -0.066175 -0.796487 -5.201955 -0.681548 -5.268335 14.677653 -17.668950 -2.365651 3.457846 -1.611184 -3.843303 -0.703102 8.303063 -1.674660 -1.670401 5.432592 4.224678 -25.309406 -2.880656 4.410606 13.989433 -1.217954 2.057603 8.653290 0.000000 0.000000 0.000000 8.763306 0.130215 -56.645999 26.508750 -37.705692 9.197516 18.441264 -8.834532 23.401263 0.000000 0.000000 0.000000 -7.125000 0.000000 0.000000 -6.631560 5.596337 -5.994315 0.000000 0.000000 0.000000 -8.947509 22.512602 29.334771 -18.367525 -28.625204 -4.724079 -7.478545 5.939582 31.505241 0.000000 0.000000 0.000000 7.125000 0.000000 0.000000 27.681433 59.503122 -10.284869
11.133026 16.596885 -0.083463 467.690431 75.955997 469.074331 0.000000 0.000000 0.000000 -35.037552 7.128693 24.323432 0.176129 2.701727 7.449398 0.362902 -8.143557 -11.364724 0.043420 -1.278118 -3.515344 0.000000 0.000000 0.000000 1.794098 1.247804 -24.523830 -0.568368 -4.826586 13.414946 -0.038861 -0.812712 -4.116760 -0.990174 -6.331437 17.749716 -16.322169 -2.325927 3.317413 -1.291831 -3.736253 -0.818568 7.904685 -1.630445 -1.801440 5.227116 4.163229 -25.068414 -2.772386 4.391350 14.043212 -1.153901 2.051325 8.624347 0.000000 0.000000 0.000000 7.980759 1.420275 -56.402168 25.095283 -36.298604 8.347355 18.645444 -8.111978 23.199487 0.000000 0.000000 0.000000 -7.125000 0.000000 0.000000 -6.488731 5.772649 -5.841757 0.000000 0.000000 0.000000 -8.983637 22.321359 29.150730 -18.071596 -28.248734 -4.583117 -8.751456 6.782618 29.949493 0.000000 0.000000 0.000000 7.125000 0.000000 0.000000 25.125744 58.402379 -8.610373
